<svg width="80" height="80" viewBox="0 0 80 80" fill="none" xmlns="http://www.w3.org/2000/svg">
<g clip-path="url(#clip0)">
<path d="M68.4645 9.4375H37.2715C33.6617 9.4375 30.7361 12.3637 30.7361 15.973V31.3379C32.3849 32.1575 34.1666 33.0437 35.8295 33.8703L38.3738 28.7795C39.9144 25.7011 43.6699 24.4504 46.7472 25.9882C49.8311 27.5315 51.0807 31.2767 49.5369 34.3611L45.0014 43.4343C45.1216 44.6352 45.0149 45.8459 44.6764 47.0176H47.6708L39.773 68.7349C39.3045 70.023 40.2102 71.5262 41.7285 71.5262C42.5773 71.5262 43.3758 71.0024 43.6824 70.1563L52.0969 47.0176H53.5546L62.0548 70.1633C62.3641 71.0051 63.1603 71.5262 64.0086 71.5262C65.4273 71.5262 66.4673 70.1092 65.9598 68.7295L57.9862 47.0176H68.4645C72.0738 47.0176 75 44.0914 75 40.4821V15.973C75 12.3637 72.0738 9.4375 68.4645 9.4375V9.4375ZM64.0075 38.1063H54.6748C53.5264 38.1063 52.5947 37.1746 52.5947 36.0262C52.5947 34.8767 53.5264 33.9461 54.6748 33.9461H64.0075C65.157 33.9461 66.0876 34.8767 66.0876 36.0262C66.0876 37.1746 65.157 38.1063 64.0075 38.1063V38.1063ZM64.0075 30.3076H54.6748C53.5264 30.3076 52.5947 29.377 52.5947 28.2275C52.5947 27.0792 53.5264 26.1475 54.6748 26.1475H64.0075C65.157 26.1475 66.0876 27.0792 66.0876 28.2275C66.0876 29.377 65.157 30.3076 64.0075 30.3076V30.3076ZM64.0075 22.51H41.7285C40.579 22.51 39.6484 21.5783 39.6484 20.43C39.6484 19.2816 40.579 18.3499 41.7285 18.3499H64.0075C65.157 18.3499 66.0876 19.2816 66.0876 20.43C66.0876 21.5783 65.157 22.51 64.0075 22.51V22.51Z" fill="#3DDB85"/>
<path d="M40.5985 46.1254C40.9745 45.0242 40.9718 43.8736 40.6543 42.8238L45.8166 32.5004C46.3301 31.4728 45.9141 30.2231 44.8865 29.7096C43.8595 29.1955 42.6098 29.6121 42.0958 30.6397L37.6929 39.4443C35.0614 38.1339 31.0632 36.1459 27.8424 34.5442C24.8457 33.054 22.7072 31.7176 19.0584 31.7176H17.2204C20.0616 31.7176 22.5972 30.41 24.2569 28.3635C25.5234 26.8062 26.2807 24.8214 26.2807 22.6585C26.2807 17.6538 22.2245 13.5977 17.2193 13.5977C12.2163 13.5977 8.16016 17.6538 8.16016 22.6585C8.16016 25.0619 9.09619 27.246 10.6232 28.8667C12.2743 30.6223 14.6192 31.7176 17.2188 31.7182C13.7336 31.7182 10.3264 33.1303 7.87523 35.588C5.37643 38.0803 4 41.4008 4 44.938V51.6219C4 54.4994 5.86828 56.9478 8.45592 57.8188V69.4456C8.45592 70.5945 9.38708 71.5257 10.536 71.5257H23.9037C25.0527 71.5257 25.9838 70.5945 25.9838 69.4456V46.0745C27.9561 47.0604 30.547 48.3555 32.6433 49.4043C34.1129 50.1388 35.8301 50.2049 37.3614 49.5819C38.8884 48.9536 40.0655 47.7028 40.5904 46.1498C40.5931 46.1417 40.5958 46.1335 40.5985 46.1254V46.1254Z" fill="#3DDB85"/>
</g>
<defs>
<clipPath id="clip0">
<rect width="71" height="71" fill="white" transform="translate(4 5)"/>
</clipPath>
</defs>
</svg>
