<svg width="80" height="80" viewBox="0 0 80 80" fill="none" xmlns="http://www.w3.org/2000/svg">
<path d="M58.4101 51.1197C56.5733 51.1197 55.0791 49.6267 55.0791 47.7929C55.0791 45.959 56.5733 44.4673 58.4101 44.4673C60.2473 44.4673 61.7414 45.9587 61.7414 47.7929C61.7414 49.627 60.2473 51.1197 58.4101 51.1197ZM21.5899 51.1197C19.7531 51.1197 18.2589 49.6267 18.2589 47.7929C18.2589 45.959 19.7528 44.4673 21.5899 44.4673C23.4267 44.4673 24.9209 45.9587 24.9209 47.7929C24.9209 49.627 23.427 51.1197 21.5899 51.1197ZM59.6049 31.0857L66.2626 19.5736C66.4459 19.2559 66.4954 18.8785 66.4004 18.5244C66.3053 18.1703 66.0734 17.8683 65.7556 17.6846C65.4374 17.5017 65.0595 17.4523 64.7048 17.5472C64.3501 17.6421 64.0476 17.8735 63.8636 18.1908L57.1227 29.8484C51.9673 27.4998 46.1779 26.1913 40 26.1913C33.8221 26.1913 28.0327 27.4998 22.8777 29.8484L16.1364 18.1908C15.9524 17.8735 15.6499 17.6421 15.2952 17.5472C14.9405 17.4523 14.5626 17.5017 14.2444 17.6846C13.9264 17.8681 13.6943 18.1701 13.5993 18.5243C13.5042 18.8785 13.5539 19.2559 13.7374 19.5736L20.3951 31.0857C8.96283 37.2934 1.14387 48.8484 0 62.5H80C78.8552 48.8487 71.0363 37.2934 59.6049 31.0854" fill="#3DDB85"/>
</svg>
