<svg width="80" height="80" viewBox="0 0 80 80" fill="none" xmlns="http://www.w3.org/2000/svg">
<path fill-rule="evenodd" clip-rule="evenodd" d="M47.9479 40.379H60.4249C61.3728 40.3786 62.2821 40.7562 62.9526 41.4287C63.623 42.1012 63.9998 43.0136 64 43.965V73.9934C63.9998 74.9447 63.623 75.8571 62.9526 76.5296C62.2821 77.2021 61.3728 77.5797 60.4249 77.5793H19.5721C17.5993 77.5785 16.0004 75.9734 16 73.9934V43.965C16.0004 41.9849 17.5993 40.3798 19.5721 40.379H32.0888C27.7255 34.1964 22.8727 25.8311 22.8727 19.2086C22.8727 9.72145 30.5659 2 40.0169 2C49.4679 2 57.1604 9.72145 57.1633 19.2086C57.1633 25.8311 52.3104 34.1964 47.9479 40.379V40.379ZM31.3916 19.2086C31.392 14.4276 35.2538 10.5521 40.0174 10.5524C44.7809 10.5527 48.6423 14.4286 48.6422 19.2097C48.6421 23.9907 44.7804 27.8664 40.0169 27.8664C35.2551 27.8611 31.3964 23.9879 31.3916 19.2086V19.2086ZM20.7706 72.7507H29.2426V45.6327H20.7706V72.7507ZM50.4954 72.7507H58.9703V45.6327H50.4954V59.4977L41.5303 45.6327H33.0584V72.7507H41.5303V59.1154L50.4954 72.7507V72.7507Z" fill="url(#paint0_linear)"/>
<defs>
<linearGradient id="paint0_linear" x1="40" y1="2" x2="40" y2="77.5793" gradientUnits="userSpaceOnUse">
<stop stop-color="#4776E6"/>
<stop offset="1" stop-color="#8E54E9"/>
</linearGradient>
</defs>
</svg>
