<svg width="128" height="128" viewBox="0 0 128 128" fill="none" xmlns="http://www.w3.org/2000/svg">
<rect width="128" height="128" rx="64" fill="#00FFB1"/>
<path d="M23 67.3478V42.0712C23 38.6666 24.9086 35.3636 27.8508 33.6662L59.4366 15.4C60.5658 17.359 61.2988 19.5217 61.5935 21.7644C61.8883 24.0072 61.7392 26.2861 61.1547 28.4711C60.5701 30.6561 59.5616 32.7044 58.1868 34.4991C56.8119 36.2937 55.0976 37.7995 53.1417 38.9305L40.1976 46.417V63.0128L54.548 71.3107L57.0117 69.887C58.9676 68.7559 61.1267 68.0218 63.3659 67.7265C65.605 67.4313 67.8802 67.5806 70.0617 68.1661C72.2432 68.7516 74.2882 69.7617 76.0799 71.1388C77.8717 72.5159 79.3751 74.233 80.5042 76.1921L59.3999 88.3966C56.4544 90.1005 52.647 90.1005 49.6972 88.3966L27.8605 75.768C26.3938 74.9039 25.1753 73.6743 24.3235 72.1988C23.4718 70.7233 23.0158 69.0521 23 67.3478V67.3478ZM36.4496 60.8458L36.4669 60.8545L36.4496 60.8458Z" fill="#36393F"/>
<path d="M40.1738 71.8105L40.2019 63.0128L54.5512 71.3118L57.015 69.8869C58.9709 68.7559 61.13 68.0218 63.3691 67.7265C65.6082 67.4313 67.8835 67.5806 70.065 68.1661C72.2465 68.7516 74.2914 69.7617 76.0832 71.1388C77.8749 72.5159 79.3783 74.233 80.5075 76.192L59.3999 88.3965C56.4544 90.1005 52.647 90.1016 49.6972 88.3965C46.7927 86.7162 44.3826 84.2976 42.7104 81.3853C41.0382 78.473 40.1632 75.1701 40.1738 71.8105Z" fill="#121212"/>
<path d="M104 60.6522V85.9288C104 89.3335 102.091 92.6364 99.1492 94.3338L67.5634 112.6C65.2842 108.644 64.667 103.944 65.8475 99.5319C67.028 95.1203 69.9095 91.3589 73.8583 89.0749L86.8024 81.5884V64.9872L72.452 56.6882L69.985 58.113C66.0348 60.3974 61.3404 61.0164 56.9345 59.834C52.5286 58.6515 48.7722 55.7645 46.4914 51.8079L67.5969 39.6034C70.5424 37.8995 74.3498 37.8995 77.2996 39.6034L99.1395 52.2309C100.607 53.0949 101.825 54.3246 102.677 55.8003C103.529 57.2761 103.985 58.9476 104 60.6522Z" fill="#36393F"/>
<path d="M86.8348 56.1863L86.8078 64.984L72.452 56.6882L69.985 58.1131C68.0292 59.2441 65.87 59.9782 63.6309 60.2735C61.3918 60.5687 59.1165 60.4194 56.935 59.8339C54.7536 59.2484 52.7086 58.2383 50.9168 56.8612C49.1251 55.4841 47.6217 53.767 46.4925 51.808L67.598 39.6035C70.5435 37.8995 74.3509 37.8984 77.3007 39.6035C80.2068 41.282 82.6189 43.6994 84.2931 46.6113C85.9672 49.5231 86.844 52.8261 86.8348 56.1863Z" fill="#121212"/>
</svg>
