<svg width="305" height="59" viewBox="0 0 305 59" fill="none" xmlns="http://www.w3.org/2000/svg">
<rect width="305" height="59" fill="white"/>
<rect y="6.10145" width="43.154" height="43.154" rx="21.577" fill="#202225"/>
<path d="M8.80115 28.7228V20.8378C8.80115 19.7757 9.39652 18.7454 10.3143 18.2159L20.1675 12.5178C20.5197 13.1289 20.7484 13.8035 20.8403 14.5031C20.9323 15.2028 20.8858 15.9137 20.7034 16.5953C20.5211 17.2769 20.2065 17.9159 19.7776 18.4757C19.3487 19.0355 18.8139 19.5053 18.2038 19.8581L14.1659 22.1935V27.3705L18.6425 29.959L19.4111 29.5149C20.0212 29.1621 20.6947 28.9331 21.3932 28.841C22.0917 28.7488 22.8015 28.7954 23.482 28.9781C24.1625 29.1607 24.8004 29.4758 25.3593 29.9054C25.9183 30.335 26.3872 30.8706 26.7395 31.4818L20.156 35.2889C19.2372 35.8205 18.0495 35.8205 17.1293 35.2889L10.3174 31.3495C9.85983 31.0799 9.47972 30.6964 9.21403 30.2361C8.94833 29.7758 8.80609 29.2545 8.80115 28.7228V28.7228ZM12.9967 26.6945L13.0021 26.6972L12.9967 26.6945Z" fill="#00FFB1"/>
<path d="M14.1585 30.1149L14.1673 27.3705L18.6435 29.9594L19.4121 29.5149C20.0222 29.1621 20.6957 28.9331 21.3942 28.841C22.0927 28.7488 22.8025 28.7954 23.483 28.9781C24.1635 29.1607 24.8014 29.4758 25.3603 29.9054C25.9193 30.335 26.3883 30.8706 26.7405 31.4818L20.156 35.2889C19.2372 35.8205 18.0495 35.8208 17.1293 35.2889C16.2232 34.7647 15.4714 34.0103 14.9498 33.1018C14.4281 32.1933 14.1552 31.163 14.1585 30.1149Z" fill="#00CB8F"/>
<path d="M34.069 26.6341V34.5191C34.069 35.5812 33.4736 36.6115 32.5558 37.1411L22.7026 42.8392C21.9916 41.6051 21.7991 40.1388 22.1673 38.7626C22.5356 37.3864 23.4345 36.213 24.6663 35.5005L28.7042 33.1651V27.9864L24.2276 25.3976L23.458 25.842C22.2258 26.5546 20.7614 26.7477 19.387 26.3789C18.0125 26.01 16.8407 25.1094 16.1292 23.8752L22.7131 20.068C23.6319 19.5365 24.8196 19.5365 25.7398 20.068L32.5527 24.0071C33.0104 24.2766 33.3906 24.6602 33.6563 25.1206C33.922 25.581 34.0642 26.1024 34.069 26.6341Z" fill="#00FFB1"/>
<path d="M28.7143 25.241L28.7059 27.9854L24.2276 25.3976L23.458 25.842C22.8479 26.1949 22.1744 26.4239 21.4759 26.516C20.7774 26.6081 20.0676 26.5615 19.3871 26.3788C18.7066 26.1962 18.0687 25.8811 17.5097 25.4515C16.9508 25.0219 16.4818 24.4863 16.1296 23.8752L22.7134 20.068C23.6322 19.5365 24.82 19.5361 25.7401 20.068C26.6467 20.5916 27.3992 21.3457 27.9214 22.2541C28.4437 23.1624 28.7172 24.1928 28.7143 25.241Z" fill="#00CB8F"/>
<path d="M62.4575 42.8979C62.2852 42.984 62.0699 43.0558 61.8114 43.1133C61.5817 43.1707 61.2802 43.1994 60.9069 43.1994C59.8157 43.1994 59.0261 42.7112 58.5379 41.7349C58.0785 40.7586 57.8344 39.4808 57.8057 37.9015C57.777 36.3222 57.9349 34.5132 58.2795 32.4744C58.6241 30.4356 59.0692 28.3682 59.6147 26.272C60.189 24.1471 60.8064 22.0796 61.4668 20.0696C62.156 18.0308 62.8164 16.2218 63.4482 14.6425C62.6442 14.5276 61.8258 14.4989 60.9931 14.5563C60.189 14.6138 59.3276 14.8004 58.4087 15.1163C57.5186 15.4321 56.5853 15.9203 55.609 16.5807C54.6327 17.2125 53.599 18.0595 52.5078 19.122C51.8474 18.0308 51.6894 16.9253 52.034 15.8054C52.3786 14.6568 53.0534 13.6087 54.0584 12.6612C55.0921 11.7136 56.37 10.9239 57.8918 10.2922C59.4137 9.66045 61.0361 9.30151 62.759 9.21537C63.7353 9.15794 64.7547 9.24408 65.8171 9.4738C66.9083 9.67481 67.9851 9.91888 69.0476 10.206C70.1387 10.4645 71.2155 10.7085 72.278 10.9383C73.3692 11.1393 74.4172 11.2254 75.4223 11.1967C76.456 11.168 77.4323 10.967 78.3512 10.5937C79.2701 10.1917 80.1171 9.51688 80.8924 8.56928C81.1222 9.08615 81.2657 9.66045 81.3232 10.2922C81.3806 10.9239 81.3519 11.5556 81.237 12.1874C81.1222 12.8191 80.9068 13.4221 80.5909 13.9964C80.3038 14.542 79.9305 15.0301 79.4711 15.4608C78.3512 15.9203 77.2887 16.2362 76.2837 16.4084C75.2787 16.5807 74.3167 16.6525 73.3979 16.6238C72.479 16.5951 71.6032 16.5089 70.7705 16.3654C69.9377 16.1931 69.1337 15.9921 68.3584 15.7624C66.9227 19.122 65.7884 22.3811 64.9557 25.5398C64.123 28.6697 63.5487 31.7278 63.2328 34.7142C63.2328 35.6905 63.4769 36.2791 63.965 36.4801C64.4532 36.6811 65.0131 36.6093 65.6449 36.2648C66.2766 35.9202 66.894 35.389 67.497 34.6711C68.1287 33.9245 68.5738 33.0918 68.8322 32.1729C68.9471 32.1442 69.0619 32.1442 69.1768 32.1729C69.4065 32.2303 69.5357 32.3739 69.5644 32.6036C69.4783 33.5225 69.2486 34.5132 68.8753 35.5756C68.502 36.6381 67.9995 37.6718 67.3677 38.6768C66.736 39.6531 66.0038 40.5289 65.1711 41.3042C64.3383 42.0795 63.4338 42.6107 62.4575 42.8979ZM72.4806 40.7012C72.0786 40.7299 71.6478 40.773 71.1884 40.8304C70.7577 40.8879 70.3269 40.9022 69.8962 40.8735C69.4655 40.8448 69.0491 40.7586 68.6471 40.6151C68.2451 40.4428 67.8575 40.17 67.4842 39.7967C67.4267 38.1599 67.556 36.394 67.8718 34.4988C68.2164 32.5749 68.6615 30.6223 69.2071 28.641C69.7527 26.6596 70.3557 24.707 71.0161 22.7831C71.7053 20.8305 72.3657 19.0358 72.9974 17.3991C73.6579 15.7336 74.2609 14.2835 74.8065 13.0488C75.352 11.7853 75.7684 10.8234 76.0556 10.163C77.0893 9.73224 78.1087 9.53123 79.1137 9.55995C80.1474 9.55995 81.0232 9.76095 81.7411 10.163C81.1955 11.1105 80.6069 12.1874 79.9751 13.3934C79.3434 14.5994 78.7117 15.9059 78.08 17.313C77.4482 18.6913 76.8165 20.1414 76.1848 21.6633C75.5818 23.1851 75.0218 24.7357 74.505 26.3151C75.3951 24.7645 76.4576 23.3574 77.6923 22.094C78.9558 20.8305 80.4202 19.9691 82.0857 19.5096V19.4666C83.4066 19.2656 84.3972 19.2512 85.0577 19.4235C85.7468 19.5671 86.1775 19.8542 86.3498 20.2849C86.5221 20.7157 86.4934 21.2756 86.2637 21.9648C86.0627 22.6252 85.7468 23.3862 85.3161 24.2476C84.3972 26.0279 83.7081 27.6934 83.2486 29.244C82.7892 30.7946 82.5164 32.4744 82.4303 34.2834C82.4303 35.2597 82.6169 35.8484 82.9902 36.0494C83.3922 36.2504 83.8516 36.193 84.3685 35.8771C84.9141 35.5325 85.4453 34.987 85.9622 34.2404C86.5078 33.4938 86.9098 32.661 87.1682 31.7422C87.2831 31.7135 87.3979 31.7135 87.5128 31.7422C87.7425 31.7996 87.8717 31.9432 87.9004 32.1729C87.8143 33.2353 87.5846 34.2834 87.2113 35.3172C86.8667 36.3222 86.3929 37.2267 85.7899 38.0307C85.1869 38.806 84.4403 39.4378 83.5501 39.9259C82.6887 40.4141 81.698 40.6581 80.5782 40.6581C79.4296 40.6581 78.6255 40.2131 78.1661 39.3229C77.7067 38.4327 77.4626 37.2985 77.4339 35.9202C77.4339 34.5419 77.6062 33.0343 77.9507 31.3976C78.2953 29.7321 78.7117 28.1241 79.1998 26.5735C79.1998 26.0279 78.927 25.8126 78.3815 25.9274C77.8359 26.0423 77.2042 26.4012 76.4863 27.0042C75.7684 27.5785 75.0505 28.3395 74.3327 29.2871C73.6435 30.2346 73.1554 31.2397 72.8682 32.3021C72.8108 32.618 72.7534 32.9338 72.6959 33.2497C72.6385 33.5369 72.5811 33.8384 72.5236 34.1542C72.4662 34.4701 72.4231 34.9152 72.3944 35.4895C72.3944 36.0638 72.3944 36.6811 72.3944 37.3416C72.3944 37.9733 72.3944 38.605 72.3944 39.2368C72.4231 39.8398 72.4518 40.3279 72.4806 40.7012ZM86.9202 32.0006C87.1499 30.5074 87.4945 29.0286 87.9539 27.5642C88.4134 26.0997 88.9877 24.7788 89.6768 23.6015C90.3947 22.4242 91.2274 21.4479 92.175 20.6726C93.1226 19.8973 94.1994 19.4666 95.4054 19.3804C96.9561 19.2656 98.2195 19.3804 99.1958 19.725C100.172 20.0696 100.904 20.5721 101.392 21.2325C101.881 21.893 102.168 22.6539 102.254 23.5154C102.34 24.3481 102.268 25.2095 102.039 26.0997C101.838 26.9611 101.507 27.8082 101.048 28.641C100.617 29.445 100.129 30.1198 99.5835 30.6654C98.4923 31.7565 97.2863 32.4313 95.9654 32.6898C94.6732 32.9195 93.2806 32.9626 91.7874 32.819C91.7587 33.824 91.9884 34.628 92.4765 35.231C92.9647 35.834 93.5964 36.2648 94.3717 36.5232C95.147 36.7529 95.9941 36.8247 96.913 36.7386C97.8606 36.6237 98.7651 36.3653 99.6265 35.9633C100.517 35.5612 101.306 35.0157 101.996 34.3265C102.685 33.6374 103.158 32.8333 103.417 31.9145C103.532 31.8857 103.647 31.8857 103.761 31.9145C103.991 31.9719 104.12 32.1155 104.149 32.3452C103.948 34.3265 103.345 35.9633 102.34 37.2554C101.335 38.5189 100.143 39.4521 98.7651 40.0551C97.3868 40.6581 95.9367 40.9309 94.4148 40.8735C92.9216 40.8161 91.5577 40.4428 90.3229 39.7536C89.1169 39.0645 88.1693 38.0738 87.4801 36.7816C86.8197 35.4607 86.6331 33.8671 86.9202 32.0006ZM97.3006 27.9949C97.6452 27.478 97.8749 26.9755 97.9898 26.4874C98.1046 25.9705 98.119 25.5254 98.0329 25.1521C97.9754 24.7501 97.8319 24.4199 97.6021 24.1615C97.3724 23.8743 97.0996 23.702 96.7838 23.6446C96.4966 23.5872 96.1808 23.6302 95.8362 23.7738C95.4916 23.8887 95.1327 24.1615 94.7594 24.5922C94.4148 25.0229 94.0415 25.6403 93.6395 26.4443C93.2662 27.2483 92.8929 28.2964 92.5196 29.5886C93.4385 29.7608 94.3143 29.7465 95.147 29.5455C96.0085 29.3158 96.7263 28.7989 97.3006 27.9949ZM125.759 22.6108C125.099 22.1227 124.726 21.6345 124.639 21.1464C124.553 20.6582 124.668 20.1844 124.984 19.725C125.558 18.921 125.86 18.2605 125.889 17.7437C125.917 17.2268 125.774 16.8535 125.458 16.6238C125.171 16.3654 124.754 16.2505 124.209 16.2792C123.692 16.2792 123.161 16.3941 122.615 16.6238C122.098 16.8248 121.61 17.1407 121.151 17.5714C120.691 18.0021 120.375 18.5046 120.203 19.0789C119.858 20.2562 119.873 21.2325 120.246 22.0078C120.648 22.7831 121.208 23.4867 121.926 24.1184C122.672 24.7501 123.505 25.3675 124.424 25.9705C125.343 26.5735 126.176 27.2914 126.922 28.1241C127.669 28.9568 128.229 29.9762 128.602 31.1822C129.004 32.3595 129.047 33.8384 128.731 35.6187C128.473 37.0257 127.913 38.2461 127.051 39.2798C126.219 40.3136 125.214 41.1463 124.036 41.778C122.859 42.4097 121.581 42.8261 120.203 43.0271C118.825 43.2568 117.475 43.2568 116.154 43.0271C114.833 42.8261 113.613 42.3954 112.493 41.7349C111.402 41.0745 110.54 40.1843 109.909 39.0645C109.306 38.0594 108.947 37.0401 108.832 36.0063C108.746 34.9726 108.875 33.9963 109.22 33.0774C109.564 32.1585 110.11 31.3258 110.856 30.5792C111.603 29.8326 112.536 29.244 113.656 28.8133C114.029 28.7271 114.345 28.7271 114.604 28.8133C114.833 28.8707 115.02 28.9999 115.164 29.2009C115.307 29.4019 115.35 29.7321 115.293 30.1916C114.891 30.6797 114.575 31.1822 114.345 31.6991C114.144 32.1585 114.001 32.7041 113.914 33.3358C113.857 33.9389 113.957 34.5849 114.216 35.2741C114.762 36.1355 115.465 36.7098 116.326 36.997C117.188 37.2554 118.049 37.2985 118.911 37.1262C119.801 36.9539 120.605 36.595 121.323 36.0494C122.041 35.5038 122.515 34.8434 122.744 34.0681C123.003 33.2641 122.931 32.3739 122.529 31.3976C122.156 30.4213 121.294 29.4163 119.945 28.3825C118.107 27.2914 116.757 26.0853 115.896 24.7645C115.034 23.4149 114.546 22.0653 114.431 20.7157C114.345 19.3374 114.575 18.0021 115.12 16.7099C115.695 15.4178 116.47 14.2835 117.446 13.3072C118.423 12.3022 119.557 11.5126 120.849 10.9383C122.17 10.3352 123.534 10.0481 124.941 10.0768C126.865 10.1055 128.301 10.6224 129.248 11.6274C130.196 12.6037 130.684 13.781 130.713 15.1593C130.77 16.5089 130.368 17.8873 129.507 19.2943C128.674 20.6726 127.425 21.7781 125.759 22.6108ZM133.261 40.8735C132.227 40.8735 131.466 40.5002 130.978 39.7536C130.519 38.9783 130.246 37.9733 130.16 36.7386C130.102 35.4751 130.203 34.025 130.461 32.3883C130.748 30.7515 131.107 29.0573 131.538 27.3057C131.997 25.5541 132.514 23.8025 133.089 22.0509C133.692 20.2706 134.266 18.6195 134.812 17.0976H127.489C127.575 16.2074 127.705 15.5614 127.877 15.1593C128.049 14.7573 128.322 14.3984 128.695 14.0825L136.276 13.2642C136.506 12.6899 136.707 12.1874 136.879 11.7566C137.051 11.3259 137.209 10.967 137.353 10.6798C138.358 10.2491 139.363 10.0481 140.368 10.0768C141.402 10.0768 142.263 10.2778 142.952 10.6798C142.579 11.3403 142.234 12.0007 141.918 12.6612L149.456 11.8428C149.341 12.8765 149.169 13.8385 148.939 14.7286C148.738 15.6188 148.221 16.4084 147.389 17.0976H139.98C138.975 19.7106 138.056 22.5391 137.224 25.5828C136.391 28.5979 135.73 31.5842 135.242 34.5419C135.185 34.829 135.156 35.0444 135.156 35.188C135.242 35.9345 135.486 36.3509 135.888 36.4371C136.29 36.4945 136.735 36.3509 137.224 36.0063C137.74 35.633 138.229 35.0875 138.688 34.3696C139.176 33.6517 139.535 32.8621 139.765 32.0006C139.88 31.9719 139.995 31.9719 140.109 32.0006C140.196 32.0293 140.282 32.0868 140.368 32.1729C140.454 32.2303 140.511 32.3308 140.54 32.4744C140.425 33.5369 140.196 34.5706 139.851 35.5756C139.506 36.5806 139.033 37.4851 138.43 38.2892C137.827 39.0645 137.094 39.6962 136.233 40.1843C135.371 40.6438 134.381 40.8735 133.261 40.8735ZM147.235 19.725C147.321 19.8399 147.508 19.9117 147.795 19.9404C148.082 19.9691 148.398 19.9834 148.742 19.9834C149.087 19.9547 149.432 19.9117 149.776 19.8542C150.121 19.7968 150.408 19.7537 150.638 19.725C151.097 19.6101 151.571 19.6389 152.059 19.8112C152.547 19.9547 153.007 20.1701 153.437 20.4572C153.868 20.7444 154.241 21.0459 154.557 21.3618C154.873 21.6776 155.088 21.936 155.203 22.1371C154.485 23.3718 153.839 24.4773 153.265 25.4536C152.691 26.4299 152.188 27.3919 151.757 28.3395C151.355 29.2583 151.025 30.2203 150.767 31.2253C150.537 32.2303 150.393 33.3789 150.336 34.6711C150.336 35.6187 150.58 36.193 151.068 36.394C151.556 36.5663 152.116 36.4801 152.748 36.1355C153.38 35.791 153.997 35.2597 154.6 34.5419C155.203 33.7953 155.634 32.9626 155.892 32.0437C156.007 32.015 156.122 32.015 156.237 32.0437C156.467 32.1011 156.596 32.2447 156.625 32.4744C156.538 33.2784 156.337 34.0824 156.022 34.8864C155.763 35.5756 155.39 36.3222 154.902 37.1262C154.442 37.9015 153.811 38.6194 153.007 39.2798C152.432 39.768 151.772 40.1556 151.025 40.4428C150.307 40.7299 149.46 40.8735 148.484 40.8735C147.45 40.8735 146.675 40.5863 146.158 40.0121C145.67 39.4378 145.354 38.6768 145.21 37.7292C145.096 36.7816 145.124 35.7048 145.297 34.4988C145.469 33.2641 145.727 32.0006 146.072 30.7084C146.445 29.4163 146.862 28.1385 147.321 26.875C147.809 25.6116 148.283 24.463 148.742 23.4292C148.254 23.4867 147.752 23.5154 147.235 23.5154C146.747 23.4867 146.259 23.4005 145.77 23.2569C145.397 24.262 144.923 25.4823 144.349 26.9181C143.775 28.3251 143.129 29.7752 142.411 31.2684C141.722 32.7616 140.946 34.1973 140.085 35.5756C139.252 36.9539 138.362 38.1169 137.414 39.0645C137.012 39.007 136.653 38.9209 136.338 38.806C136.079 38.6912 135.864 38.5332 135.691 38.3322C135.49 38.1025 135.419 37.7867 135.476 37.3846C135.964 37.1262 136.539 36.5663 137.199 35.7048C137.859 34.8434 138.52 33.7379 139.18 32.3883C139.841 31.0099 140.458 29.4306 141.032 27.6503C141.635 25.8413 142.124 23.8599 142.497 21.7063C141.951 21.0459 141.679 20.3998 141.679 19.7681C141.679 19.1364 141.836 18.5764 142.152 18.0883C142.468 17.6001 142.885 17.2268 143.401 16.9684C143.947 16.6812 144.478 16.5807 144.995 16.6669C145.541 16.7243 146.029 16.9971 146.46 17.4852C146.89 17.9447 147.149 18.6913 147.235 19.725ZM155.146 32.0006C155.376 30.5074 155.72 29.0286 156.18 27.5642C156.639 26.0997 157.214 24.7788 157.903 23.6015C158.621 22.4242 159.453 21.4479 160.401 20.6726C161.348 19.8973 162.425 19.4666 163.631 19.3804C165.182 19.2656 166.445 19.3804 167.422 19.725C168.398 20.0696 169.13 20.5721 169.618 21.2325C170.106 21.893 170.394 22.6539 170.48 23.5154C170.566 24.3481 170.494 25.2095 170.264 26.0997C170.063 26.9611 169.733 27.8082 169.274 28.641C168.843 29.445 168.355 30.1198 167.809 30.6654C166.718 31.7565 165.512 32.4313 164.191 32.6898C162.899 32.9195 161.506 32.9626 160.013 32.819C159.984 33.824 160.214 34.628 160.702 35.231C161.191 35.834 161.822 36.2648 162.598 36.5232C163.373 36.7529 164.22 36.8247 165.139 36.7386C166.086 36.6237 166.991 36.3653 167.852 35.9633C168.743 35.5612 169.532 35.0157 170.221 34.3265C170.91 33.6374 171.384 32.8333 171.643 31.9145C171.758 31.8857 171.872 31.8857 171.987 31.9145C172.217 31.9719 172.346 32.1155 172.375 32.3452C172.174 34.3265 171.571 35.9633 170.566 37.2554C169.561 38.5189 168.369 39.4521 166.991 40.0551C165.613 40.6581 164.162 40.9309 162.641 40.8735C161.147 40.8161 159.783 40.4428 158.549 39.7536C157.343 39.0645 156.395 38.0738 155.706 36.7816C155.046 35.4607 154.859 33.8671 155.146 32.0006ZM165.526 27.9949C165.871 27.478 166.101 26.9755 166.216 26.4874C166.33 25.9705 166.345 25.5254 166.259 25.1521C166.201 24.7501 166.058 24.4199 165.828 24.1615C165.598 23.8743 165.325 23.702 165.01 23.6446C164.722 23.5872 164.407 23.6302 164.062 23.7738C163.717 23.8887 163.358 24.1615 162.985 24.5922C162.641 25.0229 162.267 25.6403 161.865 26.4443C161.492 27.2483 161.119 28.2964 160.745 29.5886C161.664 29.7608 162.54 29.7465 163.373 29.5455C164.234 29.3158 164.952 28.7989 165.526 27.9949ZM175.91 34.4988C176.025 34.8434 176.154 35.0587 176.298 35.1449C176.441 35.231 176.757 35.1305 177.245 34.8434C178.164 33.9245 178.968 32.9626 179.657 31.9575C180.375 30.9238 180.964 29.9906 181.423 29.1578C181.911 28.2964 182.27 27.5929 182.5 27.0473C182.758 26.473 182.888 26.1715 182.888 26.1428C182.285 24.8506 181.682 24.104 181.079 23.903C180.476 23.702 179.901 23.8599 179.356 24.3768C178.81 24.865 178.308 25.5972 177.848 26.5735C177.389 27.5498 177.001 28.5692 176.685 29.6316C176.369 30.6654 176.14 31.6417 175.996 32.5605C175.852 33.4794 175.824 34.1255 175.91 34.4988ZM185.644 34.5419C185.644 35.5182 185.831 36.1068 186.204 36.3078C186.606 36.5088 187.066 36.4514 187.582 36.1355C188.099 35.8197 188.616 35.2885 189.133 34.5419C189.65 33.7953 190.038 32.9626 190.296 32.0437C190.411 32.015 190.526 32.015 190.641 32.0437C190.87 32.1011 191 32.2447 191.028 32.4744C190.942 33.5369 190.712 34.5706 190.339 35.5756C189.995 36.5806 189.521 37.4851 188.918 38.2892C188.315 39.0645 187.582 39.6962 186.721 40.1843C185.86 40.6438 184.869 40.8735 183.749 40.8735C183.232 40.8735 182.787 40.7299 182.414 40.4428C182.069 40.1269 181.796 39.7105 181.595 39.1937C181.423 38.6481 181.308 38.0164 181.251 37.2985C181.193 36.5806 181.193 35.8053 181.251 34.9726C180.418 36.3796 179.729 37.4851 179.183 38.2892C178.667 39.0645 178.164 39.6531 177.676 40.0551C177.216 40.4284 176.714 40.6581 176.168 40.7443C175.651 40.8304 174.991 40.8735 174.187 40.8735C174.072 40.8735 173.957 40.8735 173.842 40.8735C173.756 40.8735 173.641 40.8448 173.498 40.7874C172.924 40.6151 172.407 40.17 171.947 39.4521C171.488 38.7055 171.201 37.8297 171.086 36.8247C170.971 35.6761 171.014 34.3983 171.215 32.9913C171.445 31.5555 171.775 30.1198 172.206 28.684C172.636 27.2483 173.153 25.8843 173.756 24.5922C174.388 23.2713 175.048 22.1371 175.738 21.1895C176.369 20.3567 177.058 19.8255 177.805 19.5958C178.552 19.3374 179.313 19.2943 180.088 19.4666C180.863 19.6389 181.595 19.9834 182.285 20.5003C183.002 20.9885 183.634 21.5628 184.18 22.2232C184.611 21.1607 184.969 20.3854 185.257 19.8973C185.716 19.7824 186.233 19.725 186.807 19.725C187.381 19.725 187.927 19.7824 188.444 19.8973C188.961 19.9834 189.406 20.1127 189.779 20.2849C190.181 20.4285 190.44 20.6008 190.554 20.8018C189.808 22.0653 189.147 23.2282 188.573 24.2907C187.999 25.3531 187.496 26.4156 187.066 27.478C186.664 28.5405 186.333 29.646 186.075 30.7946C185.845 31.9145 185.702 33.1636 185.644 34.5419ZM194.078 19.5096C194.537 19.3948 195.054 19.3517 195.629 19.3804C196.203 19.3804 196.748 19.4379 197.265 19.5527C197.782 19.6389 198.242 19.7681 198.644 19.9404C199.046 20.0839 199.304 20.2562 199.419 20.4572C198.299 22.3811 197.366 24.1471 196.619 25.7551C197.509 24.3194 198.558 23.0416 199.764 21.9217C200.97 20.7731 202.362 19.9834 203.942 19.5527V19.5096C204.947 19.3661 205.794 19.3086 206.483 19.3374C207.172 19.3661 207.689 19.524 208.033 19.8112C208.378 20.0983 208.522 20.529 208.464 21.1033C208.435 21.6489 208.191 22.3668 207.732 23.2569C207.56 23.5728 207.387 23.8887 207.215 24.2045C207.071 24.5204 206.928 24.8363 206.784 25.1521C207.617 23.8599 208.579 22.697 209.67 21.6633C210.79 20.6295 212.097 19.9117 213.59 19.5096C214.911 19.3086 215.901 19.2943 216.562 19.4666C217.222 19.6101 217.639 19.8973 217.811 20.328C217.983 20.7587 217.954 21.3187 217.725 22.0078C217.524 22.697 217.208 23.4723 216.777 24.3337C215.858 26.1428 215.169 27.837 214.71 29.4163C214.25 30.9669 213.992 32.6323 213.934 34.4127C213.934 35.4177 214.121 36.0207 214.494 36.2217C214.896 36.4227 215.356 36.3653 215.873 36.0494C216.418 35.7048 216.949 35.1592 217.466 34.4127C218.012 33.6374 218.414 32.7903 218.672 31.8714C218.787 31.8427 218.902 31.8427 219.017 31.8714C219.247 31.9288 219.376 32.0724 219.404 32.3021C219.29 33.3933 219.046 34.4557 218.672 35.4895C218.328 36.4945 217.854 37.399 217.251 38.203C216.648 38.9783 215.901 39.61 215.011 40.0982C214.15 40.5863 213.159 40.8304 212.039 40.8304C210.891 40.8304 210.087 40.3853 209.627 39.4952C209.168 38.605 208.924 37.4708 208.895 36.0925C208.895 34.7142 209.067 33.1923 209.412 31.5268C209.756 29.8614 210.173 28.2533 210.661 26.7027C210.661 26.1571 210.402 25.9418 209.886 26.0566C209.369 26.1428 208.766 26.473 208.076 27.0473C207.387 27.6216 206.698 28.3682 206.009 29.2871C205.349 30.2059 204.86 31.1966 204.545 32.259C204.344 33.4938 204.229 34.8003 204.2 36.1786C204.2 37.5569 204.243 39.1075 204.329 40.8304C204.329 40.8591 204.085 40.8735 203.597 40.8735C203.138 40.8735 202.621 40.8448 202.046 40.7874C201.472 40.7299 200.926 40.6438 200.41 40.5289C199.921 40.3853 199.634 40.2131 199.548 40.0121C199.117 37.7723 199.06 35.4895 199.376 33.1636C199.692 30.8377 200.166 28.684 200.797 26.7027C200.797 26.1571 200.539 25.9418 200.022 26.0566C199.534 26.1428 198.945 26.4586 198.256 27.0042C197.596 27.5498 196.921 28.2677 196.232 29.1578C195.571 30.048 195.069 31.0099 194.724 32.0437C194.494 33.3358 194.365 34.6854 194.336 36.0925C194.308 37.4708 194.336 39.0501 194.423 40.8304C194.423 40.8591 194.178 40.8735 193.69 40.8735C193.231 40.8735 192.714 40.8448 192.14 40.7874C191.594 40.7299 191.063 40.6438 190.546 40.5289C190.058 40.3853 189.771 40.2131 189.685 40.0121C189.397 38.6337 189.283 37.2124 189.34 35.7479C189.369 34.2834 189.498 32.8621 189.728 31.4837C189.986 30.0767 190.302 28.7415 190.675 27.478C191.077 26.1858 191.479 25.0229 191.881 23.9892C192.312 22.9267 192.714 22.0078 193.087 21.2325C193.489 20.4572 193.82 19.8829 194.078 19.5096ZM220.751 40.8735C219.717 40.8735 218.956 40.5002 218.468 39.7536C217.98 39.007 217.692 38.002 217.606 36.7386C217.549 35.4751 217.649 34.0394 217.908 32.4313C218.166 30.7946 218.511 29.1004 218.941 27.3488C219.401 25.5685 219.918 23.7882 220.492 22.0078C221.066 20.2275 221.641 18.5621 222.215 17.0115C222.789 15.4608 223.306 14.0825 223.766 12.8765C224.254 11.6705 224.627 10.766 224.885 10.163C225.919 9.73224 226.953 9.53123 227.987 9.55995C229.02 9.55995 229.896 9.76095 230.614 10.163C229.839 11.5413 229.063 13.1637 228.288 15.0301C227.513 16.8966 226.781 18.9066 226.091 21.0602C225.402 23.1851 224.756 25.3962 224.153 27.6934C223.579 29.9906 223.105 32.2447 222.732 34.4557C222.732 34.5706 222.717 34.6711 222.689 34.7572C222.689 34.8434 222.689 34.9439 222.689 35.0587C222.775 35.8053 223.019 36.2217 223.421 36.3078C223.852 36.394 224.311 36.2648 224.799 35.9202C225.316 35.5469 225.804 35.0013 226.264 34.2834C226.752 33.5369 227.125 32.7328 227.384 31.8714C227.498 31.8427 227.613 31.8427 227.728 31.8714C227.814 31.9001 227.9 31.9432 227.987 32.0006C228.073 32.058 228.13 32.1585 228.159 32.3021C228.044 33.3933 227.8 34.4557 227.427 35.4895C227.082 36.5232 226.608 37.4421 226.005 38.2461C225.402 39.0214 224.656 39.6531 223.766 40.1413C222.904 40.6294 221.899 40.8735 220.751 40.8735ZM229.881 40.9166C228.733 40.9166 227.9 40.4571 227.383 39.5383C226.895 38.6194 226.636 37.4564 226.608 36.0494C226.579 34.6137 226.708 33.0487 226.995 31.3545C227.311 29.6603 227.699 28.038 228.158 26.4874C228.618 24.908 229.077 23.5154 229.537 22.3093C230.025 21.1033 230.427 20.2706 230.743 19.8112C231.145 19.6676 231.633 19.5814 232.207 19.5527C232.781 19.4953 233.327 19.4809 233.844 19.5096C234.389 19.5384 234.863 19.6101 235.265 19.725C235.696 19.8399 235.969 19.9978 236.084 20.1988C235.251 21.6345 234.562 22.9554 234.016 24.1615C233.471 25.3675 233.025 26.5448 232.681 27.6934C232.336 28.8133 232.078 29.9331 231.906 31.053C231.762 32.1729 231.69 33.3502 231.69 34.5849C231.69 35.5612 231.891 36.1499 232.293 36.3509C232.695 36.5519 233.155 36.4945 233.672 36.1786C234.188 35.834 234.705 35.2885 235.222 34.5419C235.768 33.7953 236.17 32.9626 236.428 32.0437C236.543 32.015 236.658 32.015 236.773 32.0437C236.859 32.0724 236.945 32.1155 237.031 32.1729C237.117 32.2303 237.175 32.3308 237.203 32.4744C237.117 33.5369 236.888 34.5849 236.514 35.6187C236.17 36.6237 235.696 37.5282 235.093 38.3322C234.49 39.1075 233.743 39.7393 232.853 40.2274C231.992 40.6869 231.001 40.9166 229.881 40.9166ZM237.074 16.8392C236.672 16.7243 236.241 16.6238 235.782 16.5377C235.323 16.4228 234.834 16.3654 234.318 16.3654C233.829 16.3367 233.327 16.3654 232.81 16.4515C232.322 16.5089 231.862 16.6382 231.432 16.8392C231.547 16.3223 231.69 15.7193 231.862 15.0301C232.063 14.341 232.264 13.6805 232.465 13.0488C232.666 12.3884 232.839 11.8141 232.982 11.3259C233.155 10.809 233.27 10.4788 233.327 10.3352C233.729 10.163 234.231 10.0768 234.834 10.0768C235.437 10.0481 236.04 10.0768 236.644 10.163C237.247 10.2491 237.778 10.364 238.237 10.5075C238.725 10.6511 239.041 10.809 239.185 10.9813C239.07 11.2398 238.926 11.6274 238.754 12.1443C238.582 12.6324 238.395 13.1637 238.194 13.738C237.993 14.3123 237.792 14.8866 237.591 15.4608C237.39 16.0064 237.218 16.4659 237.074 16.8392ZM240.179 19.5096C240.638 19.3948 241.155 19.3517 241.729 19.3804C242.304 19.3804 242.849 19.4379 243.366 19.5527C243.883 19.6389 244.328 19.7681 244.701 19.9404C245.103 20.0839 245.362 20.2562 245.477 20.4572C244.902 21.4623 244.386 22.3955 243.926 23.2569C243.495 24.1184 243.093 24.9511 242.72 25.7551C243.61 24.3481 244.644 23.0846 245.821 21.9648C247.027 20.8162 248.406 20.0122 249.956 19.5527V19.5096C251.306 19.3086 252.311 19.2943 252.971 19.4666C253.632 19.6101 254.048 19.8973 254.22 20.328C254.393 20.7587 254.364 21.3187 254.134 22.0078C253.933 22.697 253.617 23.4723 253.187 24.3337C252.268 26.1428 251.579 27.837 251.119 29.4163C250.66 30.9669 250.387 32.6323 250.301 34.4127C250.301 35.4177 250.502 36.0207 250.904 36.2217C251.306 36.4227 251.765 36.3653 252.282 36.0494C252.799 35.7048 253.316 35.1592 253.833 34.4127C254.378 33.6374 254.78 32.7903 255.039 31.8714C255.154 31.8427 255.268 31.8427 255.383 31.8714C255.469 31.9001 255.556 31.9432 255.642 32.0006C255.728 32.058 255.785 32.1585 255.814 32.3021C255.699 33.3933 255.455 34.4557 255.082 35.4895C254.737 36.4945 254.263 37.399 253.66 38.203C253.057 38.9783 252.311 39.61 251.421 40.0982C250.559 40.5863 249.569 40.8304 248.449 40.8304C247.3 40.8304 246.482 40.3853 245.994 39.4952C245.534 38.605 245.29 37.4708 245.261 36.0925C245.261 34.7142 245.434 33.1923 245.778 31.5268C246.151 29.8326 246.582 28.2102 247.07 26.6596C247.07 26.1141 246.812 25.8987 246.295 26.0136C245.778 26.1284 245.161 26.4586 244.443 27.0042C243.754 27.5498 243.065 28.2677 242.375 29.1578C241.686 30.048 241.169 31.0099 240.825 32.0437C240.595 33.3358 240.466 34.6854 240.437 36.0925C240.409 37.4708 240.437 39.0501 240.523 40.8304C240.523 40.8591 240.279 40.8735 239.791 40.8735C239.332 40.8735 238.815 40.8448 238.241 40.7874C237.695 40.7299 237.164 40.6438 236.647 40.5289C236.159 40.3853 235.872 40.2131 235.785 40.0121C235.498 38.6337 235.383 37.2124 235.441 35.7479C235.47 34.2834 235.599 32.8621 235.828 31.4837C236.087 30.0767 236.403 28.7415 236.776 27.478C237.178 26.1858 237.58 25.0229 237.982 23.9892C238.413 22.9267 238.815 22.0078 239.188 21.2325C239.59 20.4572 239.92 19.8829 240.179 19.5096ZM253.994 32.0006C254.223 30.5074 254.568 29.0286 255.027 27.5642C255.487 26.0997 256.061 24.7788 256.75 23.6015C257.468 22.4242 258.301 21.4479 259.248 20.6726C260.196 19.8973 261.273 19.4666 262.479 19.3804C264.029 19.2656 265.293 19.3804 266.269 19.725C267.245 20.0696 267.978 20.5721 268.466 21.2325C268.954 21.893 269.241 22.6539 269.327 23.5154C269.413 24.3481 269.342 25.2095 269.112 26.0997C268.911 26.9611 268.581 27.8082 268.121 28.641C267.691 29.445 267.202 30.1198 266.657 30.6654C265.566 31.7565 264.36 32.4313 263.039 32.6898C261.747 32.9195 260.354 32.9626 258.861 32.819C258.832 33.824 259.062 34.628 259.55 35.231C260.038 35.834 260.67 36.2648 261.445 36.5232C262.22 36.7529 263.067 36.8247 263.986 36.7386C264.934 36.6237 265.838 36.3653 266.7 35.9633C267.59 35.5612 268.38 35.0157 269.069 34.3265C269.758 33.6374 270.232 32.8333 270.49 31.9145C270.605 31.8857 270.72 31.8857 270.835 31.9145C271.065 31.9719 271.194 32.1155 271.222 32.3452C271.021 34.3265 270.418 35.9633 269.413 37.2554C268.408 38.5189 267.217 39.4521 265.838 40.0551C264.46 40.6581 263.01 40.9309 261.488 40.8735C259.995 40.8161 258.631 40.4428 257.396 39.7536C256.19 39.0645 255.243 38.0738 254.553 36.7816C253.893 35.4607 253.706 33.8671 253.994 32.0006ZM264.374 27.9949C264.719 27.478 264.948 26.9755 265.063 26.4874C265.178 25.9705 265.192 25.5254 265.106 25.1521C265.049 24.7501 264.905 24.4199 264.675 24.1615C264.446 23.8743 264.173 23.702 263.857 23.6446C263.57 23.5872 263.254 23.6302 262.91 23.7738C262.565 23.8887 262.206 24.1615 261.833 24.5922C261.488 25.0229 261.115 25.6403 260.713 26.4443C260.34 27.2483 259.966 28.2964 259.593 29.5886C260.512 29.7608 261.388 29.7465 262.22 29.5455C263.082 29.3158 263.8 28.7989 264.374 27.9949ZM277.335 19.725C277.421 19.8399 277.608 19.9117 277.895 19.9404C278.182 19.9691 278.498 19.9834 278.843 19.9834C279.187 19.9547 279.532 19.9117 279.876 19.8542C280.221 19.7968 280.508 19.7537 280.738 19.725C281.197 19.6101 281.671 19.6389 282.159 19.8112C282.647 19.9547 283.107 20.1701 283.537 20.4572C283.968 20.7444 284.341 21.0459 284.657 21.3618C284.973 21.6776 285.189 21.936 285.303 22.1371C284.586 23.3718 283.939 24.4773 283.365 25.4536C282.791 26.4299 282.288 27.3919 281.858 28.3395C281.456 29.2583 281.125 30.2203 280.867 31.2253C280.637 32.2303 280.494 33.3789 280.436 34.6711C280.436 35.6187 280.68 36.193 281.168 36.394C281.657 36.5663 282.217 36.4801 282.848 36.1355C283.48 35.791 284.097 35.2597 284.7 34.5419C285.303 33.7953 285.734 32.9626 285.993 32.0437C286.107 32.015 286.222 32.015 286.337 32.0437C286.567 32.1011 286.696 32.2447 286.725 32.4744C286.639 33.2784 286.438 34.0824 286.122 34.8864C285.863 35.5756 285.49 36.3222 285.002 37.1262C284.542 37.9015 283.911 38.6194 283.107 39.2798C282.532 39.768 281.872 40.1556 281.125 40.4428C280.408 40.7299 279.56 40.8735 278.584 40.8735C277.55 40.8735 276.775 40.5863 276.258 40.0121C275.77 39.4378 275.454 38.6768 275.311 37.7292C275.196 36.7816 275.224 35.7048 275.397 34.4988C275.569 33.2641 275.827 32.0006 276.172 30.7084C276.545 29.4163 276.962 28.1385 277.421 26.875C277.909 25.6116 278.383 24.463 278.843 23.4292C278.354 23.4867 277.852 23.5154 277.335 23.5154C276.847 23.4867 276.359 23.4005 275.871 23.2569C275.497 24.262 275.023 25.4823 274.449 26.9181C273.875 28.3251 273.229 29.7752 272.511 31.2684C271.822 32.7616 271.046 34.1973 270.185 35.5756C269.352 36.9539 268.462 38.1169 267.515 39.0645C267.113 39.007 266.754 38.9209 266.438 38.806C266.179 38.6912 265.964 38.5332 265.792 38.3322C265.591 38.1025 265.519 37.7867 265.576 37.3846C266.064 37.1262 266.639 36.5663 267.299 35.7048C267.96 34.8434 268.62 33.7379 269.281 32.3883C269.941 31.0099 270.558 29.4306 271.133 27.6503C271.736 25.8413 272.224 23.8599 272.597 21.7063C272.051 21.0459 271.779 20.3998 271.779 19.7681C271.779 19.1364 271.937 18.5764 272.252 18.0883C272.568 17.6001 272.985 17.2268 273.502 16.9684C274.047 16.6812 274.578 16.5807 275.095 16.6669C275.641 16.7243 276.129 16.9971 276.56 17.4852C276.99 17.9447 277.249 18.6913 277.335 19.725ZM288.907 40.8735C288.075 40.8448 287.213 40.6581 286.323 40.3136C285.433 39.969 284.701 39.5095 284.126 38.9352C283.552 38.3609 283.207 37.6861 283.093 36.9108C282.949 36.1068 283.222 35.2597 283.911 34.3696L289.596 26.6596C288.792 25.4249 288.419 24.3337 288.477 23.3862C288.534 22.4098 288.836 21.6202 289.381 21.0172C289.927 20.3854 290.63 19.9404 291.492 19.6819C292.353 19.3948 293.186 19.3086 293.99 19.4235C294.823 19.5096 295.526 19.8112 296.1 20.328C296.703 20.8162 297.005 21.534 297.005 22.4816C297.005 22.9698 296.876 23.4436 296.617 23.903C296.359 24.3337 296.072 24.7214 295.756 25.066C295.383 25.468 294.966 25.8556 294.507 26.2289C295.77 27.6934 296.646 29.086 297.134 30.4069C297.651 31.6991 297.866 32.8908 297.78 33.9819C297.694 35.0731 297.364 36.0494 296.79 36.9108C296.244 37.7723 295.555 38.5045 294.722 39.1075C293.889 39.6818 292.956 40.1269 291.922 40.4428C290.917 40.7586 289.912 40.9022 288.907 40.8735ZM285.978 35.9633C286.581 36.6524 287.228 37.0544 287.917 37.1693C288.606 37.2841 289.252 37.2124 289.855 36.9539C290.458 36.6668 290.989 36.236 291.449 35.6618C291.937 35.0587 292.267 34.3983 292.439 33.6804C292.612 32.9338 292.597 32.1729 292.396 31.3976C292.224 30.5936 291.779 29.847 291.061 29.1578L285.978 35.9633Z" fill="#3C51B2"/>
</svg>
